{
	"asset":{
		"generator":"Khronos glTF Blender I/O v3.5.30",
		"version":"2.0"
	},
	"scene":0,
	"scenes":[
		{
			"name":"Scene",
			"nodes":[
				2
			]
		}
	],
	"nodes":[
		{
			"mesh":0,
			"name":"GS",
			"rotation":[
				0.014624484814703465,
				-0.49244436621665955,
				-0.002140781609341502,
				0.8702184557914734
			],
			"translation":[
				-48.44178009033203,
				1.4900500774383545,
				44.3088493347168
			]
		},
		{
			"mesh":1,
			"name":"jasper.001",
			"translation":[
				-0.7106508612632751,
				4.577678203582764,
				-8.995976448059082
			]
		},
		{
			"children":[
				0,
				1
			],
			"name":"jasper"
		}
	],
	"animations":[
		{
			"channels":[
				{
					"sampler":0,
					"target":{
						"node":2,
						"path":"rotation"
					}
				}
			],
			"name":"Anim_0",
			"samplers":[
				{
					"input":8,
					"interpolation":"LINEAR",
					"output":9
				}
			]
		}
	],
	"materials":[
		{
			"doubleSided":true,
			"name":"Material.003",
			"normalTexture":{
				"index":0
			},
			"pbrMetallicRoughness":{
				"baseColorTexture":{
					"index":1
				},
				"metallicFactor":0,
				"roughnessFactor":0.5
			}
		}
	],
	"meshes":[
		{
			"name":"GS",
			"primitives":[
				{
					"attributes":{
						"POSITION":0,
						"TEXCOORD_0":1,
						"NORMAL":2
					},
					"indices":3
				}
			]
		},
		{
			"name":"jasper",
			"primitives":[
				{
					"attributes":{
						"POSITION":4,
						"TEXCOORD_0":5,
						"NORMAL":6
					},
					"indices":7,
					"material":0
				}
			]
		}
	],
	"textures":[
		{
			"sampler":0,
			"source":0
		},
		{
			"sampler":0,
			"source":1
		}
	],
	"images":[
		{
			"bufferView":8,
			"mimeType":"image/jpeg",
			"name":"jasper_Normal"
		},
		{
			"bufferView":9,
			"mimeType":"image/jpeg",
			"name":"Jasper_Base_color"
		}
	],
	"accessors":[
		{
			"bufferView":0,
			"componentType":5126,
			"count":3808,
			"max":[
				6.942361354827881,
				4.553782939910889,
				1.3033561706542969
			],
			"min":[
				-4.371122360229492,
				-4.865011215209961,
				0.0007546937558799982
			],
			"type":"VEC3"
		},
		{
			"bufferView":1,
			"componentType":5126,
			"count":3808,
			"type":"VEC2"
		},
		{
			"bufferView":2,
			"componentType":5126,
			"count":3808,
			"type":"VEC3"
		},
		{
			"bufferView":3,
			"componentType":5123,
			"count":18768,
			"type":"SCALAR"
		},
		{
			"bufferView":4,
			"componentType":5126,
			"count":5158,
			"max":[
				59.95363235473633,
				104.8431396484375,
				77.18724822998047
			],
			"min":[
				-57.1988410949707,
				-102.52507019042969,
				-66.69699096679688
			],
			"type":"VEC3"
		},
		{
			"bufferView":5,
			"componentType":5126,
			"count":5158,
			"type":"VEC2"
		},
		{
			"bufferView":6,
			"componentType":5126,
			"count":5158,
			"type":"VEC3"
		},
		{
			"bufferView":7,
			"componentType":5123,
			"count":30924,
			"type":"SCALAR"
		},
		{
			"bufferView":10,
			"componentType":5126,
			"count":97,
			"max":[
				4
			],
			"min":[
				0
			],
			"type":"SCALAR"
		},
		{
			"bufferView":11,
			"componentType":5126,
			"count":97,
			"type":"VEC4"
		}
	],
	"bufferViews":[
		{
			"buffer":0,
			"byteLength":45696,
			"byteOffset":0,
			"target":34962
		},
		{
			"buffer":0,
			"byteLength":30464,
			"byteOffset":45696,
			"target":34962
		},
		{
			"buffer":0,
			"byteLength":45696,
			"byteOffset":76160,
			"target":34962
		},
		{
			"buffer":0,
			"byteLength":37536,
			"byteOffset":121856,
			"target":34963
		},
		{
			"buffer":0,
			"byteLength":61896,
			"byteOffset":159392,
			"target":34962
		},
		{
			"buffer":0,
			"byteLength":41264,
			"byteOffset":221288,
			"target":34962
		},
		{
			"buffer":0,
			"byteLength":61896,
			"byteOffset":262552,
			"target":34962
		},
		{
			"buffer":0,
			"byteLength":61848,
			"byteOffset":324448,
			"target":34963
		},
		{
			"buffer":0,
			"byteLength":914559,
			"byteOffset":386296
		},
		{
			"buffer":0,
			"byteLength":1182885,
			"byteOffset":1300856
		},
		{
			"buffer":0,
			"byteLength":388,
			"byteOffset":2483744
		},
		{
			"buffer":0,
			"byteLength":1552,
			"byteOffset":2484132
		}
	],
	"samplers":[
		{
			"magFilter":9729,
			"minFilter":9987
		}
	],
	"buffers":[
		{
			"byteLength":2485684,
			"uri":"data:application/octet-stream;base64,"
		}
	]
}
